<?xml version="1.0" encoding="UTF-8" standalone="no"?>
<!DOCTYPE svg PUBLIC "-//W3C//DTD SVG 1.1//EN"
 "http://www.w3.org/Graphics/SVG/1.1/DTD/svg11.dtd">
<!-- Generated by graphviz version 2.50.0 (0)
 -->
<!-- Title: polars Pages: 1 -->
<svg width="1023pt" height="1588pt"
 viewBox="0.00 0.00 1023.00 1588.00" xmlns="http://www.w3.org/2000/svg" xmlns:xlink="http://www.w3.org/1999/xlink">
<g id="graph0" class="graph" transform="scale(1 1) rotate(0) translate(4 1584)">
<title>polars</title>
<polygon fill="white" stroke="transparent" points="-4,4 -4,-1584 1019,-1584 1019,4 -4,4"/>
<text text-anchor="start" x="486.5" y="-27" font-family="Helvetica,sans-Serif" font-weight="bold" font-size="10.00">Legend</text>
<text text-anchor="start" x="273" y="-7" font-family="Helvetica,sans-Serif" font-size="10.00">◯ streaming engine node </text>
<text text-anchor="start" x="403" y="-7" font-family="Helvetica,sans-Serif" font-size="10.00" fill="#fffbb2">⬤</text>
<text text-anchor="start" x="415" y="-7" font-family="Helvetica,sans-Serif" font-size="10.00"> potentially memory&#45;intensive node </text>
<text text-anchor="start" x="594" y="-7" font-family="Helvetica,sans-Serif" font-size="10.00" fill="#ffb2b2">⬤</text>
<text text-anchor="start" x="606" y="-7" font-family="Helvetica,sans-Serif" font-size="10.00"> in&#45;memory engine fallback</text>
<!-- 4294967315 -->
<g id="node1" class="node">
<title>4294967315</title>
<polygon fill="none" stroke="black" points="688,-1580 317,-1580 317,-1542 688,-1542 688,-1580"/>
<text text-anchor="middle" x="502.5" y="-1564.8" font-family="Monospace" font-size="14.00">select</text>
<text text-anchor="middle" x="502.5" y="-1549.8" font-family="Monospace" font-size="14.00">gender, age_group, question, trust, percent</text>
</g>
<!-- 4294967314 -->
<g id="node2" class="node">
<title>4294967314</title>
<polygon fill="none" stroke="black" points="721,-1506 284,-1506 284,-1468 721,-1468 721,-1506"/>
<text text-anchor="middle" x="502.5" y="-1490.8" font-family="Monospace" font-size="14.00">with&#45;columns</text>
<text text-anchor="middle" x="502.5" y="-1475.8" font-family="Monospace" font-size="14.00">percent = [(col(&quot;percent&quot;)) / (col(&quot;row_weights&quot;))]</text>
</g>
<!-- 4294967314&#45;&gt;4294967315 -->
<g id="edge20" class="edge">
<title>4294967314&#45;&gt;4294967315</title>
<path fill="none" stroke="black" d="M502.5,-1506.17C502.5,-1513.87 502.5,-1523.03 502.5,-1531.58"/>
<polygon fill="black" stroke="black" points="499,-1531.59 502.5,-1541.59 506,-1531.59 499,-1531.59"/>
</g>
<!-- 4294967313 -->
<g id="node3" class="node">
<title>4294967313</title>
<polygon fill="#fffbb2" stroke="black" points="626.5,-1432 378.5,-1432 378.5,-1274 626.5,-1274 626.5,-1432"/>
<text text-anchor="middle" x="502.5" y="-1416.8" font-family="Monospace" font-size="14.00">equi&#45;join</text>
<text text-anchor="middle" x="502.5" y="-1401.8" font-family="Monospace" font-size="14.00">left_on:</text>
<text text-anchor="middle" x="502.5" y="-1386.8" font-family="Monospace" font-size="14.00">gender = col(&quot;gender&quot;)</text>
<text text-anchor="middle" x="502.5" y="-1371.8" font-family="Monospace" font-size="14.00">age_group = col(&quot;age_group&quot;)</text>
<text text-anchor="middle" x="502.5" y="-1356.8" font-family="Monospace" font-size="14.00">question = col(&quot;question&quot;)</text>
<text text-anchor="middle" x="502.5" y="-1341.8" font-family="Monospace" font-size="14.00">right_on:</text>
<text text-anchor="middle" x="502.5" y="-1326.8" font-family="Monospace" font-size="14.00">gender = col(&quot;gender&quot;)</text>
<text text-anchor="middle" x="502.5" y="-1311.8" font-family="Monospace" font-size="14.00">age_group = col(&quot;age_group&quot;)</text>
<text text-anchor="middle" x="502.5" y="-1296.8" font-family="Monospace" font-size="14.00">question = col(&quot;question&quot;)</text>
<text text-anchor="middle" x="502.5" y="-1281.8" font-family="Monospace" font-size="14.00">how: INNER</text>
</g>
<!-- 4294967313&#45;&gt;4294967314 -->
<g id="edge19" class="edge">
<title>4294967313&#45;&gt;4294967314</title>
<path fill="none" stroke="black" d="M502.5,-1432.31C502.5,-1441.37 502.5,-1450.1 502.5,-1457.8"/>
<polygon fill="black" stroke="black" points="499,-1457.92 502.5,-1467.92 506,-1457.92 499,-1457.92"/>
</g>
<!-- 4294967308 -->
<g id="node4" class="node">
<title>4294967308</title>
<polygon fill="none" stroke="black" points="489,-1238 250,-1238 250,-1140 489,-1140 489,-1238"/>
<text text-anchor="middle" x="369.5" y="-1222.8" font-family="Monospace" font-size="14.00">select</text>
<text text-anchor="middle" x="369.5" y="-1207.8" font-family="Monospace" font-size="14.00">gender = _POLARS_TMP_463</text>
<text text-anchor="middle" x="369.5" y="-1192.8" font-family="Monospace" font-size="14.00">age_group = _POLARS_TMP_464</text>
<text text-anchor="middle" x="369.5" y="-1177.8" font-family="Monospace" font-size="14.00">question = _POLARS_TMP_465</text>
<text text-anchor="middle" x="369.5" y="-1162.8" font-family="Monospace" font-size="14.00">trust = _POLARS_TMP_466</text>
<text text-anchor="middle" x="369.5" y="-1147.8" font-family="Monospace" font-size="14.00">percent = _POLARS_TMP_468</text>
</g>
<!-- 4294967308&#45;&gt;4294967313 -->
<g id="edge13" class="edge">
<title>4294967308&#45;&gt;4294967313</title>
<path fill="none" stroke="black" d="M409.04,-1238.17C416.36,-1247.07 424.19,-1256.61 432.1,-1266.25"/>
<polygon fill="black" stroke="black" points="429.4,-1268.47 438.45,-1273.98 434.81,-1264.03 429.4,-1268.47"/>
</g>
<!-- 4294967307 -->
<g id="node5" class="node">
<title>4294967307</title>
<polygon fill="#fffbb2" stroke="black" points="493.5,-1104 97.5,-1104 97.5,-960 493.5,-960 493.5,-1104"/>
<text text-anchor="middle" x="295.5" y="-1088.8" font-family="Monospace" font-size="14.00">group&#45;by</text>
<text text-anchor="middle" x="295.5" y="-1073.8" font-family="Monospace" font-size="14.00">key:</text>
<text text-anchor="middle" x="295.5" y="-1058.8" font-family="Monospace" font-size="14.00">_POLARS_TMP_463 = col(&quot;_POLARS_TMP_463&quot;)</text>
<text text-anchor="middle" x="295.5" y="-1043.8" font-family="Monospace" font-size="14.00">_POLARS_TMP_464 = col(&quot;_POLARS_TMP_464&quot;)</text>
<text text-anchor="middle" x="295.5" y="-1028.8" font-family="Monospace" font-size="14.00">_POLARS_TMP_465 = col(&quot;_POLARS_TMP_465&quot;)</text>
<text text-anchor="middle" x="295.5" y="-1013.8" font-family="Monospace" font-size="14.00">_POLARS_TMP_466 = col(&quot;_POLARS_TMP_466&quot;)</text>
<text text-anchor="middle" x="295.5" y="-982.8" font-family="Monospace" font-size="14.00">aggs:</text>
<text text-anchor="middle" x="295.5" y="-967.8" font-family="Monospace" font-size="14.00">_POLARS_TMP_468 = col(&quot;_POLARS_TMP_467&quot;).sum()</text>
</g>
<!-- 4294967307&#45;&gt;4294967308 -->
<g id="edge12" class="edge">
<title>4294967307&#45;&gt;4294967308</title>
<path fill="none" stroke="black" d="M329.47,-1104.15C333.71,-1113.03 338,-1122.03 342.13,-1130.66"/>
<polygon fill="black" stroke="black" points="339.06,-1132.36 346.52,-1139.87 345.37,-1129.34 339.06,-1132.36"/>
</g>
<!-- 4294967306 -->
<g id="node6" class="node">
<title>4294967306</title>
<polygon fill="none" stroke="black" points="428.5,-924 172.5,-924 172.5,-826 428.5,-826 428.5,-924"/>
<text text-anchor="middle" x="300.5" y="-908.8" font-family="Monospace" font-size="14.00">select</text>
<text text-anchor="middle" x="300.5" y="-893.8" font-family="Monospace" font-size="14.00">_POLARS_TMP_463 = gender</text>
<text text-anchor="middle" x="300.5" y="-878.8" font-family="Monospace" font-size="14.00">_POLARS_TMP_464 = age_group</text>
<text text-anchor="middle" x="300.5" y="-863.8" font-family="Monospace" font-size="14.00">_POLARS_TMP_465 = question</text>
<text text-anchor="middle" x="300.5" y="-848.8" font-family="Monospace" font-size="14.00">_POLARS_TMP_466 = trust</text>
<text text-anchor="middle" x="300.5" y="-833.8" font-family="Monospace" font-size="14.00">_POLARS_TMP_467 = row_weights</text>
</g>
<!-- 4294967306&#45;&gt;4294967307 -->
<g id="edge11" class="edge">
<title>4294967306&#45;&gt;4294967307</title>
<path fill="none" stroke="black" d="M298.95,-924.19C298.68,-932.31 298.41,-940.92 298.13,-949.6"/>
<polygon fill="black" stroke="black" points="294.62,-949.69 297.8,-959.79 301.62,-949.91 294.62,-949.69"/>
</g>
<!-- 4294967305 -->
<g id="node7" class="node">
<title>4294967305</title>
<polygon fill="none" stroke="black" points="512.5,-790 108.5,-790 108.5,-752 512.5,-752 512.5,-790"/>
<text text-anchor="middle" x="310.5" y="-774.8" font-family="Monospace" font-size="14.00">select</text>
<text text-anchor="middle" x="310.5" y="-759.8" font-family="Monospace" font-size="14.00">gender, age_group, question, trust, row_weights</text>
</g>
<!-- 4294967305&#45;&gt;4294967306 -->
<g id="edge10" class="edge">
<title>4294967305&#45;&gt;4294967306</title>
<path fill="none" stroke="black" d="M308.71,-790.24C307.99,-797.56 307.12,-806.44 306.22,-815.65"/>
<polygon fill="black" stroke="black" points="302.73,-815.42 305.23,-825.72 309.69,-816.11 302.73,-815.42"/>
</g>
<!-- 4294967316 -->
<g id="node8" class="node">
<title>4294967316</title>
<polygon fill="#fffbb2" stroke="black" points="561,-716 454,-716 454,-680 561,-680 561,-716"/>
<text text-anchor="middle" x="507.5" y="-694.3" font-family="Monospace" font-size="14.00">multiplexer</text>
</g>
<!-- 4294967316&#45;&gt;4294967305 -->
<g id="edge9" class="edge">
<title>4294967316&#45;&gt;4294967305</title>
<path fill="none" stroke="black" d="M460.31,-716.01C433.31,-725.74 399.18,-738.04 370.31,-748.44"/>
<polygon fill="black" stroke="black" points="368.97,-745.21 360.75,-751.89 371.34,-751.79 368.97,-745.21"/>
</g>
<!-- 4294967309 -->
<g id="node20" class="node">
<title>4294967309</title>
<polygon fill="none" stroke="black" points="880,-790 533,-790 533,-752 880,-752 880,-790"/>
<text text-anchor="middle" x="706.5" y="-774.8" font-family="Monospace" font-size="14.00">select</text>
<text text-anchor="middle" x="706.5" y="-759.8" font-family="Monospace" font-size="14.00">gender, age_group, question, row_weights</text>
</g>
<!-- 4294967316&#45;&gt;4294967309 -->
<g id="edge14" class="edge">
<title>4294967316&#45;&gt;4294967309</title>
<path fill="none" stroke="black" d="M555.17,-716.01C582.44,-725.74 616.92,-738.04 646.08,-748.44"/>
<polygon fill="black" stroke="black" points="645.15,-751.83 655.74,-751.89 647.5,-745.23 645.15,-751.83"/>
</g>
<!-- 4294967304 -->
<g id="node9" class="node">
<title>4294967304</title>
<polygon fill="none" stroke="black" points="726,-644 289,-644 289,-606 726,-606 726,-644"/>
<text text-anchor="middle" x="507.5" y="-628.8" font-family="Monospace" font-size="14.00">with&#45;columns</text>
<text text-anchor="middle" x="507.5" y="-613.8" font-family="Monospace" font-size="14.00">question = col(&quot;question&quot;).strict_cast(Enum([...]))</text>
</g>
<!-- 4294967304&#45;&gt;4294967316 -->
<g id="edge8" class="edge">
<title>4294967304&#45;&gt;4294967316</title>
<path fill="none" stroke="black" d="M507.5,-644.28C507.5,-652.03 507.5,-661.21 507.5,-669.73"/>
<polygon fill="black" stroke="black" points="504,-670 507.5,-680 511,-670 504,-670"/>
</g>
<!-- 4294967303 -->
<g id="node10" class="node">
<title>4294967303</title>
<polygon fill="none" stroke="black" points="709.5,-570 305.5,-570 305.5,-532 709.5,-532 709.5,-570"/>
<text text-anchor="middle" x="507.5" y="-554.8" font-family="Monospace" font-size="14.00">select</text>
<text text-anchor="middle" x="507.5" y="-539.8" font-family="Monospace" font-size="14.00">age_group, gender, row_weights, question, trust</text>
</g>
<!-- 4294967303&#45;&gt;4294967304 -->
<g id="edge7" class="edge">
<title>4294967303&#45;&gt;4294967304</title>
<path fill="none" stroke="black" d="M507.5,-570.17C507.5,-577.87 507.5,-587.03 507.5,-595.58"/>
<polygon fill="black" stroke="black" points="504,-595.59 507.5,-605.59 511,-595.59 504,-595.59"/>
</g>
<!-- 4294967302 -->
<g id="node11" class="node">
<title>4294967302</title>
<polygon fill="none" stroke="black" points="1015,-496 0,-496 0,-458 1015,-458 1015,-496"/>
<text text-anchor="middle" x="507.5" y="-480.8" font-family="Monospace" font-size="14.00">map</text>
<text text-anchor="middle" x="507.5" y="-465.8" font-family="Monospace" font-size="14.00">UNPIVOT on: [valitsus, riigikogu, meedia][age_group, gender, row_weights, id], variable_name: question, value_name: trust</text>
</g>
<!-- 4294967302&#45;&gt;4294967303 -->
<g id="edge6" class="edge">
<title>4294967302&#45;&gt;4294967303</title>
<path fill="none" stroke="black" d="M507.5,-496.17C507.5,-503.87 507.5,-513.03 507.5,-521.58"/>
<polygon fill="black" stroke="black" points="504,-521.59 507.5,-531.59 511,-521.59 504,-521.59"/>
</g>
<!-- 4294967301 -->
<g id="node12" class="node">
<title>4294967301</title>
<polygon fill="none" stroke="black" points="775.5,-422 239.5,-422 239.5,-384 775.5,-384 775.5,-422"/>
<text text-anchor="middle" x="507.5" y="-406.8" font-family="Monospace" font-size="14.00">select</text>
<text text-anchor="middle" x="507.5" y="-391.8" font-family="Monospace" font-size="14.00">age_group, gender, meedia, riigikogu, row_weights, valitsus, id</text>
</g>
<!-- 4294967301&#45;&gt;4294967302 -->
<g id="edge5" class="edge">
<title>4294967301&#45;&gt;4294967302</title>
<path fill="none" stroke="black" d="M507.5,-422.17C507.5,-429.87 507.5,-439.03 507.5,-447.58"/>
<polygon fill="black" stroke="black" points="504,-447.59 507.5,-457.59 511,-447.59 504,-447.59"/>
</g>
<!-- 4294967300 -->
<g id="node13" class="node">
<title>4294967300</title>
<polygon fill="none" stroke="black" points="573.5,-348 441.5,-348 441.5,-310 573.5,-310 573.5,-348"/>
<text text-anchor="middle" x="507.5" y="-332.8" font-family="Monospace" font-size="14.00">with&#45;columns</text>
<text text-anchor="middle" x="507.5" y="-317.8" font-family="Monospace" font-size="14.00">id = col(&quot;id&quot;)</text>
</g>
<!-- 4294967300&#45;&gt;4294967301 -->
<g id="edge4" class="edge">
<title>4294967300&#45;&gt;4294967301</title>
<path fill="none" stroke="black" d="M507.5,-348.17C507.5,-355.87 507.5,-365.03 507.5,-373.58"/>
<polygon fill="black" stroke="black" points="504,-373.59 507.5,-383.59 511,-373.59 504,-373.59"/>
</g>
<!-- 4294967299 -->
<g id="node14" class="node">
<title>4294967299</title>
<polygon fill="none" stroke="black" points="577.5,-274 437.5,-274 437.5,-221 577.5,-221 577.5,-274"/>
<text text-anchor="middle" x="507.5" y="-258.8" font-family="Monospace" font-size="14.00">with&#45;row&#45;index</text>
<text text-anchor="middle" x="507.5" y="-243.8" font-family="Monospace" font-size="14.00">name: id</text>
<text text-anchor="middle" x="507.5" y="-228.8" font-family="Monospace" font-size="14.00">offset: Some(0)</text>
</g>
<!-- 4294967299&#45;&gt;4294967300 -->
<g id="edge3" class="edge">
<title>4294967299&#45;&gt;4294967300</title>
<path fill="none" stroke="black" d="M507.5,-274.09C507.5,-282.26 507.5,-291.35 507.5,-299.7"/>
<polygon fill="black" stroke="black" points="504,-299.76 507.5,-309.76 511,-299.76 504,-299.76"/>
</g>
<!-- 4294967298 -->
<g id="node15" class="node">
<title>4294967298</title>
<polygon fill="none" stroke="black" points="623,-185 392,-185 392,-147 623,-147 623,-185"/>
<text text-anchor="middle" x="507.5" y="-169.8" font-family="Monospace" font-size="14.00">with&#45;columns</text>
<text text-anchor="middle" x="507.5" y="-154.8" font-family="Monospace" font-size="14.00">row_weights = dyn float: 1</text>
</g>
<!-- 4294967298&#45;&gt;4294967299 -->
<g id="edge2" class="edge">
<title>4294967298&#45;&gt;4294967299</title>
<path fill="none" stroke="black" d="M507.5,-185.04C507.5,-192.68 507.5,-201.86 507.5,-210.77"/>
<polygon fill="black" stroke="black" points="504,-211 507.5,-221 511,-211 504,-211"/>
</g>
<!-- 4294967297 -->
<g id="node16" class="node">
<title>4294967297</title>
<polygon fill="none" stroke="black" points="635.5,-111 379.5,-111 379.5,-58 635.5,-58 635.5,-111"/>
<text text-anchor="middle" x="507.5" y="-95.8" font-family="Monospace" font-size="14.00">multi&#45;scan[parquet]</text>
<text text-anchor="middle" x="507.5" y="-80.8" font-family="Monospace" font-size="14.00">1 source</text>
<text text-anchor="middle" x="507.5" y="-65.8" font-family="Monospace" font-size="14.00">project: 5 total, 5 from file</text>
</g>
<!-- 4294967297&#45;&gt;4294967298 -->
<g id="edge1" class="edge">
<title>4294967297&#45;&gt;4294967298</title>
<path fill="none" stroke="black" d="M507.5,-111.09C507.5,-119.26 507.5,-128.35 507.5,-136.7"/>
<polygon fill="black" stroke="black" points="504,-136.76 507.5,-146.76 511,-136.76 504,-136.76"/>
</g>
<!-- 4294967312 -->
<g id="node17" class="node">
<title>4294967312</title>
<polygon fill="none" stroke="black" points="800.5,-1230.5 544.5,-1230.5 544.5,-1147.5 800.5,-1147.5 800.5,-1230.5"/>
<text text-anchor="middle" x="672.5" y="-1215.3" font-family="Monospace" font-size="14.00">select</text>
<text text-anchor="middle" x="672.5" y="-1200.3" font-family="Monospace" font-size="14.00">gender = _POLARS_TMP_470</text>
<text text-anchor="middle" x="672.5" y="-1185.3" font-family="Monospace" font-size="14.00">age_group = _POLARS_TMP_471</text>
<text text-anchor="middle" x="672.5" y="-1170.3" font-family="Monospace" font-size="14.00">question = _POLARS_TMP_472</text>
<text text-anchor="middle" x="672.5" y="-1155.3" font-family="Monospace" font-size="14.00">row_weights = _POLARS_TMP_474</text>
</g>
<!-- 4294967312&#45;&gt;4294967313 -->
<g id="edge18" class="edge">
<title>4294967312&#45;&gt;4294967313</title>
<path fill="none" stroke="black" d="M629.6,-1230.88C617.98,-1241.95 604.96,-1254.36 591.8,-1266.9"/>
<polygon fill="black" stroke="black" points="589.31,-1264.44 584.48,-1273.88 594.14,-1269.51 589.31,-1264.44"/>
</g>
<!-- 4294967311 -->
<g id="node18" class="node">
<title>4294967311</title>
<polygon fill="#fffbb2" stroke="black" points="907.5,-1096.5 511.5,-1096.5 511.5,-967.5 907.5,-967.5 907.5,-1096.5"/>
<text text-anchor="middle" x="709.5" y="-1081.3" font-family="Monospace" font-size="14.00">group&#45;by</text>
<text text-anchor="middle" x="709.5" y="-1066.3" font-family="Monospace" font-size="14.00">key:</text>
<text text-anchor="middle" x="709.5" y="-1051.3" font-family="Monospace" font-size="14.00">_POLARS_TMP_470 = col(&quot;_POLARS_TMP_470&quot;)</text>
<text text-anchor="middle" x="709.5" y="-1036.3" font-family="Monospace" font-size="14.00">_POLARS_TMP_471 = col(&quot;_POLARS_TMP_471&quot;)</text>
<text text-anchor="middle" x="709.5" y="-1021.3" font-family="Monospace" font-size="14.00">_POLARS_TMP_472 = col(&quot;_POLARS_TMP_472&quot;)</text>
<text text-anchor="middle" x="709.5" y="-990.3" font-family="Monospace" font-size="14.00">aggs:</text>
<text text-anchor="middle" x="709.5" y="-975.3" font-family="Monospace" font-size="14.00">_POLARS_TMP_474 = col(&quot;_POLARS_TMP_473&quot;).sum()</text>
</g>
<!-- 4294967311&#45;&gt;4294967312 -->
<g id="edge17" class="edge">
<title>4294967311&#45;&gt;4294967312</title>
<path fill="none" stroke="black" d="M694.24,-1096.94C691.03,-1110.36 687.69,-1124.35 684.62,-1137.21"/>
<polygon fill="black" stroke="black" points="681.14,-1136.72 682.23,-1147.26 687.95,-1138.34 681.14,-1136.72"/>
</g>
<!-- 4294967310 -->
<g id="node19" class="node">
<title>4294967310</title>
<polygon fill="none" stroke="black" points="835.5,-916.5 579.5,-916.5 579.5,-833.5 835.5,-833.5 835.5,-916.5"/>
<text text-anchor="middle" x="707.5" y="-901.3" font-family="Monospace" font-size="14.00">select</text>
<text text-anchor="middle" x="707.5" y="-886.3" font-family="Monospace" font-size="14.00">_POLARS_TMP_470 = gender</text>
<text text-anchor="middle" x="707.5" y="-871.3" font-family="Monospace" font-size="14.00">_POLARS_TMP_471 = age_group</text>
<text text-anchor="middle" x="707.5" y="-856.3" font-family="Monospace" font-size="14.00">_POLARS_TMP_472 = question</text>
<text text-anchor="middle" x="707.5" y="-841.3" font-family="Monospace" font-size="14.00">_POLARS_TMP_473 = row_weights</text>
</g>
<!-- 4294967310&#45;&gt;4294967311 -->
<g id="edge16" class="edge">
<title>4294967310&#45;&gt;4294967311</title>
<path fill="none" stroke="black" d="M708.03,-916.72C708.19,-929.21 708.37,-943.36 708.55,-957.33"/>
<polygon fill="black" stroke="black" points="705.05,-957.5 708.68,-967.46 712.05,-957.41 705.05,-957.5"/>
</g>
<!-- 4294967309&#45;&gt;4294967310 -->
<g id="edge15" class="edge">
<title>4294967309&#45;&gt;4294967310</title>
<path fill="none" stroke="black" d="M706.68,-790.24C706.77,-799.45 706.88,-811.15 707,-822.85"/>
<polygon fill="black" stroke="black" points="703.5,-823.12 707.1,-833.08 710.5,-823.05 703.5,-823.12"/>
</g>
</g>
</svg>
